<svg className="share--graphic" width="460" height="265" viewBox="0 0 460 265" overflow="visible" focusable="false" role="img" aria-labelledby="share--graphic--title">
  <title id="share--graphic--title">Grim Reaper leaning on the open trunk of a car sharing a high-five with a skeleton friend who's emerged from the trunk.</title>
  <defs>
    <clipPath id="clip-path">
      <path id="trunkClipPath" d="M77-27V129.78A28.23,28.23,0,0,0,105.21,158H354.76A28.22,28.22,0,0,0,383,129.78V-27Z" fill="none"/>
    </clipPath>
    <linearGradient id="linear-gradient" x1="363.83" y1="276.74" x2="376.44" y2="276.74" gradientTransform="matrix(1, 0.09, -0.09, 1, -25.92, -257.73)" gradientUnits="userSpaceOnUse">
      <stop offset="0" stopColor="#e6e6e6"/>
      <stop offset="1" stopColor="#fff"/>
    </linearGradient>
    <linearGradient id="linear-gradient-2" x1="378.24" y1="255.26" x2="396.08" y2="273.1" gradientTransform="matrix(0.48, 0.88, -0.88, 0.48, 382.71, -426.26)" xlinkHref="#linear-gradient"/>
    <linearGradient id="linear-gradient-3" x1="345.45" y1="255.26" x2="363.29" y2="273.1" gradientTransform="matrix(0.48, 0.88, -0.88, 0.48, 365.74, -400.41)" xlinkHref="#linear-gradient"/>
    <clipPath id="clip-path-2">
      <path d="M298.08,65H333.4a0,0,0,0,1,0,0v2.52a17.66,17.66,0,0,1-17.66,17.66h0a17.66,17.66,0,0,1-17.66-17.66V65A0,0,0,0,1,298.08,65Z" transform="translate(8.01 -28.02) rotate(5.15)" fill="none"/>
    </clipPath>
    <linearGradient id="linear-gradient-4" x1="67.07" y1="-201.47" x2="79.68" y2="-201.47" gradientTransform="matrix(0.99, -0.12, 0.12, 0.99, 73.44, 309.08)" xlinkHref="#linear-gradient"/>
    <linearGradient id="linear-gradient-5" x1="81.48" y1="-222.94" x2="99.32" y2="-205.11" gradientTransform="matrix(0.84, 0.54, -0.54, 0.84, -55.12, 216.1)" xlinkHref="#linear-gradient"/>
    <linearGradient id="linear-gradient-6" x1="48.69" y1="-222.94" x2="66.53" y2="-205.11" gradientTransform="matrix(0.84, 0.54, -0.54, 0.84, -60.15, 237.92)" xlinkHref="#linear-gradient"/>
    <clipPath id="clip-path-3">
      <path d="M107,114h35.32a0,0,0,0,1,0,0v2.52a17.66,17.66,0,0,1-17.66,17.66h0A17.66,17.66,0,0,1,107,116.54V114A0,0,0,0,1,107,114Z" transform="translate(-14.17 16.08) rotate(-6.98)" fill="none"/>
    </clipPath>
  </defs>

  <rect width="460" height="265" fill="#b91c1c"/>
  <g id="car">
    <rect y="260" width="460" height="5" fill="#991b1b"/>
    <path d="M405,95H55L65.53,52.88A50,50,0,0,1,114,15H346a50,50,0,0,1,48.51,37.88Z" fill="#3b82f6"/>
    <path d="M390,95H70l9.27-35.8C84.16,40.27,101.77,27,122,27H338c20.19,0,37.8,13.27,42.69,32.2Z" fill="#93c5fd"/>
    <path d="M388,265h20a12,12,0,0,0,12-12V210H376v43A12,12,0,0,0,388,265Z" fill="#333"/>
    <rect x="376" y="210" width="44" height="20" fill="#1a1a1a"/>
    <path d="M72,265H52a12,12,0,0,1-12-12V210H84v43A12,12,0,0,1,72,265Z" fill="#333"/>
    <rect x="40" y="210" width="44" height="20" fill="#1a1a1a"/>
    <rect x="20" y="95" width="420" height="125" rx="30.06" fill="#60a5fa"/>
    <path d="M20,187v2.94A30.06,30.06,0,0,0,50.06,220H409.94A30.06,30.06,0,0,0,440,189.94V187Z" fill="#3b82f6"/>
    <path d="M55.21,175H38.79A6.79,6.79,0,0,1,32,168.21v-40A23.21,23.21,0,0,1,55.21,105h0A6.79,6.79,0,0,1,62,111.79v56.42A6.79,6.79,0,0,1,55.21,175Z" fill="#e6e6e6"/>
    <path d="M53.8,109h0a5.2,5.2,0,0,1,5.2,5.2V126.8a5.2,5.2,0,0,1-5.2,5.2H41.2a5.2,5.2,0,0,1-5.2-5.2v0A17.8,17.8,0,0,1,53.8,109Z" fill="#fbbf24"/>
    <rect x="36" y="137" width="23" height="34" rx="5.21" fill="#c1272d"/>
    <path d="M404.79,175h16.42a6.79,6.79,0,0,0,6.79-6.79v-40A23.21,23.21,0,0,0,404.79,105h0a6.79,6.79,0,0,0-6.79,6.79v56.42A6.79,6.79,0,0,0,404.79,175Z" fill="#e6e6e6"/>
    <path d="M406.2,109H418.8a5.2,5.2,0,0,1,5.2,5.2V126.8a5.2,5.2,0,0,1-5.2,5.2h0A17.8,17.8,0,0,1,401,114.2v0A5.2,5.2,0,0,1,406.2,109Z" transform="translate(825 241) rotate(-180)" fill="#fbbf24"/>
    <rect x="401" y="137" width="23" height="34" rx="5.21" transform="translate(825 308) rotate(180)" fill="#c1272d"/>
    <path d="M133.8,78.33H184a13.8,13.8,0,0,1,13.8,13.8V95a0,0,0,0,1,0,0H120a0,0,0,0,1,0,0V92.14A13.8,13.8,0,0,1,133.8,78.33Z" fill="#7db3ed"/>
    <rect x="141.11" y="40.56" width="35.56" height="27.78" rx="9.26" fill="#7db3ed"/>
    <rect x="148.89" y="60.56" width="2.22" height="17.78" fill="#7db3ed"/>
    <rect x="165.56" y="60.56" width="2.22" height="17.78" fill="#7db3ed"/>
    <path d="M276,78.33H326.2A13.8,13.8,0,0,1,340,92.14V95a0,0,0,0,1,0,0H262.22a0,0,0,0,1,0,0V92.14A13.8,13.8,0,0,1,276,78.33Z" fill="#7db3ed"/>
    <rect x="283.33" y="40.56" width="35.56" height="27.78" rx="9.26" fill="#7db3ed"/>
    <rect x="291.11" y="60.56" width="2.22" height="17.78" fill="#7db3ed"/>
    <rect x="307.78" y="60.56" width="2.22" height="17.78" fill="#7db3ed"/>
    <rect x="190" y="181" width="80" height="45" rx="7.15" fill="#fbbf24"/>
    <rect x="193" y="184" width="74" height="39" rx="5" fill="none" stroke="#1e3a8a" strokeMiterlimit="10" strokeWidth="2"/>
    <line x1="205" y1="192" x2="255" y2="192" fill="none" stroke="#1e3a8a" strokeLinecap="round" strokeMiterlimit="10" strokeWidth="3"/>
    <path d="M202.38,211.73a3.7,3.7,0,0,1-.93-2.64V200.2a.18.18,0,0,1,.07-.15.2.2,0,0,1,.15-.06h1.66a.22.22,0,0,1,.15.06.2.2,0,0,1,.06.15v9.11a1.82,1.82,0,0,0,.36,1.17,1.24,1.24,0,0,0,1.91,0,1.82,1.82,0,0,0,.36-1.17V200.2a.21.21,0,0,1,.21-.21H208a.2.2,0,0,1,.15.06.18.18,0,0,1,.07.15v8.89a3.7,3.7,0,0,1-.94,2.64,3.55,3.55,0,0,1-4.94,0Z" fill="#1e3a8a"/>
    <path d="M215.78,212.41l-1.55-5.19a.09.09,0,0,0-.09-.07h-.93a.08.08,0,0,0-.09.09v5.13a.24.24,0,0,1-.22.22h-1.65a.19.19,0,0,1-.16-.07.2.2,0,0,1-.06-.15V200.18a.2.2,0,0,1,.06-.15.21.21,0,0,1,.16-.06h3.38a3,3,0,0,1,2.82,1.75,4.37,4.37,0,0,1,.4,1.92,4.11,4.11,0,0,1-.43,1.94,2.93,2.93,0,0,1-1.21,1.23c-.05,0-.06.05-.05.11l1.76,5.41a.29.29,0,0,1,0,.09c0,.11-.06.17-.2.17H216A.22.22,0,0,1,215.78,212.41Zm-2.66-10.55v3.58a.08.08,0,0,0,.09.09h1.09a1.3,1.3,0,0,0,1.06-.5,2.11,2.11,0,0,0,.4-1.35,2.2,2.2,0,0,0-.4-1.4,1.28,1.28,0,0,0-1.06-.51h-1.09A.08.08,0,0,0,213.12,201.86Z" fill="#1e3a8a"/>
    <path d="M224.81,212.52a.2.2,0,0,1-.06-.15V200.2A.21.21,0,0,1,225,200h1.73a.23.23,0,0,1,.25.16l2.79,7.32a.1.1,0,0,0,.07.06s0,0,0-.07V200.2a.2.2,0,0,1,.06-.15.22.22,0,0,1,.15-.06h1.64a.25.25,0,0,1,.16.06.2.2,0,0,1,.06.15v12.17a.2.2,0,0,1-.06.15.21.21,0,0,1-.16.07H230a.23.23,0,0,1-.25-.17l-2.81-7.34a.05.05,0,0,0-.07,0s0,0,0,.06l0,7.27a.24.24,0,0,1-.22.22H225A.18.18,0,0,1,224.81,212.52Z" fill="#1e3a8a"/>
    <path d="M241.36,208.1v1.1c0,.3,0,.52,0,.67a2.91,2.91,0,0,1-1.05,2.07,3.61,3.61,0,0,1-2.41.79,3.76,3.76,0,0,1-2.46-.79,2.87,2.87,0,0,1-1.08-2.07,8.31,8.31,0,0,1-.06-1,.2.2,0,0,1,.22-.22h1.66a.19.19,0,0,1,.21.22,4.25,4.25,0,0,0,0,.74,1.58,1.58,0,0,0,.48,1,1.39,1.39,0,0,0,1,.36,1.41,1.41,0,0,0,1-.37,1.55,1.55,0,0,0,.5-1c0-.18,0-.39,0-.64s0-.42,0-.51,0-.28,0-.54,0-.48,0-.63a1.6,1.6,0,0,0-.5-1,1.44,1.44,0,0,0-1-.36.86.86,0,0,0-.55.17.29.29,0,0,1-.15.06.21.21,0,0,1-.16-.07l-.81-.87c-.1-.12-.1-.22,0-.3l2.63-3.06c.06-.08,0-.11,0-.11h-4.11a.2.2,0,0,1-.15-.06.25.25,0,0,1-.06-.16V200.2a.21.21,0,0,1,.21-.21h6.41a.2.2,0,0,1,.15.06.18.18,0,0,1,.07.15v1.42a.35.35,0,0,1-.09.27l-2.13,2.61c0,.05,0,.09.06.11a2.53,2.53,0,0,1,1.52,1,3.6,3.6,0,0,1,.69,1.83C241.35,207.59,241.36,207.8,241.36,208.1Z" fill="#1e3a8a"/>
    <path d="M243.54,212.51a.19.19,0,0,1,0-.18l2.46-6a.21.21,0,0,0,0-.11l-2.46-6a.18.18,0,0,1,0-.11c0-.09.06-.14.18-.14h1.71a.22.22,0,0,1,.23.18l1.44,3.9s0,.06.06.06,0,0,.05-.06l1.42-3.9a.24.24,0,0,1,.24-.18h1.69c.08,0,.14,0,.16.07a.28.28,0,0,1,0,.18l-2.47,6a.21.21,0,0,0,0,.11l2.47,6a.36.36,0,0,1,0,.11q0,.15-.18.15h-1.68a.24.24,0,0,1-.25-.18l-1.42-3.89s0-.06-.05-.06,0,0-.06.06l-1.44,3.89a.23.23,0,0,1-.25.18H243.7C243.61,212.59,243.56,212.56,243.54,212.51Z" fill="#1e3a8a"/>
    <path d="M259.75,200.05a.2.2,0,0,1,.06.15v1.37a.2.2,0,0,1-.06.15.21.21,0,0,1-.16.07h-2.28a.08.08,0,0,0-.09.09v10.49a.24.24,0,0,1-.22.22h-1.66a.18.18,0,0,1-.15-.07.2.2,0,0,1-.06-.15V201.88a.08.08,0,0,0-.09-.09h-2.16a.24.24,0,0,1-.22-.22V200.2a.18.18,0,0,1,.07-.15.2.2,0,0,1,.15-.06h6.71A.25.25,0,0,1,259.75,200.05Z" fill="#1e3a8a"/>
    <path d="M385,95v34.94A30.06,30.06,0,0,1,354.94,160H105.06A30.06,30.06,0,0,1,75,129.94V95" fill="#1e3a8a"/>
  </g>
  <path id="car--trunkInner" d="M385,95V30.06A30.06,30.06,0,0,0,354.94,0H105.06A30.06,30.06,0,0,0,75,30.06V95" fill="#1e40af"/>
  <path id="car--trunkOuter" opacity="0" d="M385,95v34.94A30.06,30.06,0,0,1,354.94,160H105.06A30.06,30.06,0,0,1,75,129.94V95" fill="#60a5fa"/>
  <path d="M385,95v34.94A30.06,30.06,0,0,1,354.94,160H105.06A30.06,30.06,0,0,1,75,129.94V95" fill="none" stroke="#3b82f6" strokeMiterlimit="10" strokeWidth="4"/>
  <g clip-path="url(#clip-path)">
    <g id="skeleton">
      <g id="skeleton--head">
        <path d="M298.08,65H333.4a0,0,0,0,1,0,0v2.52a17.66,17.66,0,0,1-17.66,17.66h0a17.66,17.66,0,0,1-17.66-17.66V65A0,0,0,0,1,298.08,65Z" transform="translate(8.01 -28.02) rotate(5.15)" fill="none" stroke="#fff" strokeMiterlimit="10" strokeWidth="3.78"/>
        <path d="M319.73-7.11h0a37.84,37.84,0,0,1,37.84,37.84V59.59a9,9,0,0,1-9,9H290.88a9,9,0,0,1-9-9V30.73A37.84,37.84,0,0,1,319.73-7.11Z" transform="translate(4.04 -28.55) rotate(5.15)" fill="#fff"/>
        <path d="M312.62,51.44l3.44-4.27a2.63,2.63,0,0,1,4.36.39L323,52.37a2.63,2.63,0,0,1-2.54,3.88l-6.06-.54A2.63,2.63,0,0,1,312.62,51.44Z" strokeMiterlimit="10" strokeWidth="1.26" stroke="url(#linear-gradient)"/>
        <path d="M289.48,20.7C293.77,8.93,300.3,1.82,314.27-1.38" fill="none" stroke="#e6e6e6" strokeLinecap="round" strokeLinejoin="round" strokeWidth="4.54"/>
        <path d="M352.11,57.2A10.79,10.79,0,0,1,340.4,67" fill="none" stroke="#e6e6e6" strokeLinecap="round" strokeLinejoin="round" strokeWidth="3.03"/>
        <circle cx="335.98" cy="40.11" r="11.35" transform="translate(116.05 297.25) rotate(-56.27)" strokeMiterlimit="10" strokeWidth="2.52" stroke="url(#linear-gradient-2)"/>
        <circle cx="303.32" cy="37.17" r="11.35" transform="translate(103.97 268.78) rotate(-56.27)" strokeMiterlimit="10" strokeWidth="2.52" stroke="url(#linear-gradient-3)"/>
        <g clip-path="url(#clip-path-2)">
          <g>
            <path d="M302.82,78.92h0A3.15,3.15,0,0,1,306,82.07V84a0,0,0,0,1,0,0h-6.31a0,0,0,0,1,0,0V82.07A3.15,3.15,0,0,1,302.82,78.92Z" transform="translate(8.53 -26.83) rotate(5.15)" fill="#fff"/>
            <path d="M311,79.66h0a3.15,3.15,0,0,1,3.15,3.15V84.7a0,0,0,0,1,0,0h-6.31a0,0,0,0,1,0,0V82.81A3.15,3.15,0,0,1,311,79.66Z" transform="translate(8.62 -27.56) rotate(5.15)" fill="#fff"/>
            <path d="M319.15,80.39h0a3.15,3.15,0,0,1,3.15,3.15v1.89a0,0,0,0,1,0,0H316a0,0,0,0,1,0,0V83.55A3.15,3.15,0,0,1,319.15,80.39Z" transform="translate(8.72 -28.29) rotate(5.15)" fill="#fff"/>
            <path d="M327.31,81.13h0a3.15,3.15,0,0,1,3.15,3.15v1.89a0,0,0,0,1,0,0h-6.31a0,0,0,0,1,0,0V84.28A3.15,3.15,0,0,1,327.31,81.13Z" transform="translate(8.82 -29.02) rotate(5.15)" fill="#fff"/>
          </g>
          <path d="M301.16,59.12h6.31a0,0,0,0,1,0,0v8.2a3.15,3.15,0,0,1-3.15,3.15h0a3.15,3.15,0,0,1-3.15-3.15v-8.2a0,0,0,0,1,0,0Z" transform="translate(7.04 -27.03) rotate(5.15)" fill="#fff"/>
          <path d="M309,63h6.31a0,0,0,0,1,0,0v8.2a3.15,3.15,0,0,1-3.15,3.15h0A3.15,3.15,0,0,1,309,71.2V63a0,0,0,0,1,0,0Z" transform="translate(7.42 -27.72) rotate(5.15)" fill="#fff"/>
          <path d="M317.21,63.74h6.31a0,0,0,0,1,0,0v8.2a3.15,3.15,0,0,1-3.15,3.15h0a3.15,3.15,0,0,1-3.15-3.15v-8.2a0,0,0,0,1,0,0Z" transform="translate(7.52 -28.45) rotate(5.15)" fill="#fff"/>
          <path d="M325.66,61.33H332a0,0,0,0,1,0,0v8.2a3.15,3.15,0,0,1-3.15,3.15h0a3.15,3.15,0,0,1-3.15-3.15v-8.2a0,0,0,0,1,0,0Z" transform="translate(7.33 -29.22) rotate(5.15)" fill="#fff"/>
        </g>
        <polyline points="338.34 -2.23 335.98 2.17 335.98 8.17 331.41 10.05 331.13 15.29 325.83 20.45" fill="none" stroke="#000" strokeMiterlimit="10" strokeWidth="2.52"/>
        <line x1="334.34" y1="18.91" x2="331.13" y2="15.29" fill="none" stroke="#000" strokeMiterlimit="10" strokeWidth="2.52"/>
      </g>
      <g id="skeleton--body">
        <path d="M342.86,105.9a156.54,156.54,0,0,0-59.65-6.43" fill="none" stroke="#fff" strokeLinecap="round" strokeLinejoin="round" strokeWidth="6.31"/>
        <g>
          <path d="M299.7,137.07c-9.63-1.08-17.11-4.9-16.7-8.53" fill="none" stroke="#fff" strokeLinecap="round" strokeLinejoin="round" strokeWidth="5"/>
          <path d="M300.67,128.35c-9.63-1.07-17.1-4.89-16.7-8.53" fill="none" stroke="#fff" strokeLinecap="round" strokeLinejoin="round" strokeWidth="5"/>
          <path d="M301.64,119.64c-9.62-1.08-17.1-4.9-16.69-8.53" fill="none" stroke="#fff" strokeLinecap="round" strokeLinejoin="round" strokeWidth="5"/>
        </g>
        <g>
          <path d="M318.87,139.21c9.63,1.08,17.76-1,18.17-4.63" fill="none" stroke="#fff" strokeLinecap="round" strokeLinejoin="round" strokeWidth="5"/>
          <path d="M319.84,130.5c9.63,1.07,17.76-1,18.17-4.64" fill="none" stroke="#fff" strokeLinecap="round" strokeLinejoin="round" strokeWidth="5"/>
          <path d="M320.82,121.78c9.62,1.08,17.76-1,18.16-4.64" fill="none" stroke="#fff" strokeLinecap="round" strokeLinejoin="round" strokeWidth="5"/>
        </g>
        <line x1="313.53" y1="95.01" x2="307.66" y2="156.74" fill="none" stroke="#fff" strokeLinecap="round" strokeLinejoin="round" strokeWidth="6.31"/>
        <path d="M329.51,151.78s-21.24-4.55-18.56,11.75" fill="none" stroke="#fff" strokeLinecap="round" strokeLinejoin="round" strokeWidth="6.31"/>
        <path d="M287.13,147.75s21.72-.46,16,15" fill="none" stroke="#fff" strokeLinecap="round" strokeLinejoin="round" strokeWidth="6.31"/>
      </g>
      <path d="M360.73,165.32c1.88-19.35-5.25-35.7-13.87-52.42" fill="none" stroke="#fff" strokeLinecap="round" strokeLinejoin="round" strokeWidth="6.31"/>
      <path id="skeleton--hand4" d="M257.38,81.05h0a5,5,0,0,1-2.72-6.57l1.71-4.15a5,5,0,0,1,6.55-2.71h0a5,5,0,0,1,2.72,6.58l-.84,2-.87,2.1A5,5,0,0,1,257.38,81.05Z" fill="#fff" opacity="0"/>
      <path id="skeleton--arm4" d="M278.21,106.47C239.44,182.19,242.75,116.56,258,79.9" fill="none" stroke="#fff" strokeLinecap="round" strokeLinejoin="round" strokeWidth="6.31" opacity="0"/>
      <path id="skeleton--arm3" d="M278.21,106.47C267,128.54,259.81,149.55,255,176.61" fill="none" stroke="#fff" strokeLinecap="round" strokeLinejoin="round" strokeWidth="6.31" opacity="0"/>
      <path id="skeleton--hand3" d="M255.29,173.83h0a5,5,0,0,1,4.21,5.7l-.67,4.43a5,5,0,0,1-5.7,4.21h0a5,5,0,0,1-4.21-5.7l.32-2.18.34-2.25A5,5,0,0,1,255.29,173.83Z" fill="#fff" opacity="0"/>
      <path id="skeleton--arm2" d="M278.21,106.47c-38.77,75.72-46.3,4.51-31.09-32.15" fill="none" stroke="#fff" strokeLinecap="round" strokeLinejoin="round" strokeWidth="6.31" opacity="0"/>
      <path id="skeleton--hand2" d="M246.42,75.89h0a5,5,0,0,1-3-6.42l1.52-4.21a5,5,0,0,1,6.42-3h0a5,5,0,0,1,3,6.41l-.75,2.08-.78,2.14A5,5,0,0,1,246.42,75.89Z" fill="#fff" opacity="0"/>
      <path id="skeleton--arm" d="M278.21,106.47c-21,58.78-53.94,15.67-55.65-32.13" fill="none" stroke="#fff" strokeLinecap="round" strokeLinejoin="round" strokeWidth="6.31"/>
      <path id="skeleton--hand" d="M222.51,76.7h0a5,5,0,0,1-5-5l0-4.48a5,5,0,0,1,5.05-5h0a5,5,0,0,1,5,5v4.48A5,5,0,0,1,222.51,76.7Z" fill="#fff"/>
    </g>
  </g>
  <g id="reaper">
    <g>
      <path d="M155.51,140.73l-56.45,6.92a22,22,0,0,1-24.52-19.18L69.43,87.91A50.45,50.45,0,0,1,113.37,31.7h0a50.45,50.45,0,0,1,56.22,43.94l5.1,40.56A22,22,0,0,1,155.51,140.73Z" fill="#1f2937" stroke="#374151" strokeMiterlimit="10" strokeWidth="3.78"/>
      <path d="M175.48,232.34c-6.1-36.33-13.32-86.65-13.32-86.65-1.94-6.47-9.4-13.85-19.18-11.68l-34.43,6C98.77,142.18,86,148,88,164c10,39,21.3,46,26.57,75.17,4.1,22.75-7.54,30.23,38.66,24.51C172.41,261.31,177.48,244.21,175.48,232.34Z" fill="#1f2937"/>
      <path d="M127.74,144.13C127,162.52,140,175.34,140,197.22" fill="none" stroke="#fff" strokeLinecap="round" strokeLinejoin="round" strokeWidth="6.31"/>
      <path d="M153.5,141.1s-3.59-.66-20.83,1.7S105,149.22,105,149.22" fill="none" stroke="#fff" strokeLinecap="round" strokeLinejoin="round" strokeWidth="6.31"/>
      <line x1="154.98" y1="200.01" x2="154.77" y2="261.89" fill="none" stroke="#fff" strokeLinecap="round" strokeLinejoin="round" strokeWidth="6.31"/>
      <line x1="120.98" y1="205.01" x2="180.98" y2="250.01" fill="none" stroke="#fff" strokeLinecap="round" strokeLinejoin="round" strokeWidth="6.31"/>
      <path d="M156.34,255.8H163a7.57,7.57,0,0,1,7.57,7.57v0a1.89,1.89,0,0,1-1.89,1.89h-12.3a4.73,4.73,0,0,1-4.73-4.73v0a4.73,4.73,0,0,1,4.73-4.73Z" fill="#fff"/>
      <path d="M176,250.39h12.3a1.89,1.89,0,0,1,1.89,1.89v0a7.57,7.57,0,0,1-7.57,7.57H176a4.73,4.73,0,0,1-4.73-4.73v0A4.73,4.73,0,0,1,176,250.39Z" transform="translate(484.93 183.04) rotate(111.98)" fill="#fff"/>
      <g>
        <path d="M107,114h35.32a0,0,0,0,1,0,0v2.52a17.66,17.66,0,0,1-17.66,17.66h0A17.66,17.66,0,0,1,107,116.54V114A0,0,0,0,1,107,114Z" transform="translate(-14.17 16.08) rotate(-6.98)" fill="none" stroke="#fff" strokeMiterlimit="10" strokeWidth="3.78"/>
        <path d="M119.28,42.06h0A37.84,37.84,0,0,1,157.12,79.9v28.86a9,9,0,0,1-9,9H90.42a9,9,0,0,1-9-9V79.9a37.84,37.84,0,0,1,37.84-37.84Z" transform="translate(-8.83 15.1) rotate(-6.98)" fill="#fff"/>
        <path d="M116.67,101.64l2.47-4.9a2.62,2.62,0,0,1,4.34-.53l3.58,4.15a2.64,2.64,0,0,1-1.68,4.33l-6,.74A2.63,2.63,0,0,1,116.67,101.64Z" strokeMiterlimit="10" strokeWidth="1.26" stroke="url(#linear-gradient-4)"/>
        <path d="M87.6,76.45c1.72-12.41,6.61-20.74,19.59-26.8" fill="none" stroke="#e6e6e6" strokeLinecap="round" strokeLinejoin="round" strokeWidth="4.54"/>
        <path d="M156.49,99a10.77,10.77,0,0,1-9.39,12" fill="none" stroke="#e6e6e6" strokeLinecap="round" strokeLinejoin="round" strokeWidth="3.03"/>
        <circle cx="137.14" cy="85.65" r="11.35" transform="translate(-23 107.99) rotate(-39.93)" strokeMiterlimit="10" strokeWidth="2.52" stroke="url(#linear-gradient-5)"/>
        <circle cx="104.59" cy="89.64" r="11.35" transform="translate(-33.15 88.03) rotate(-39.93)" strokeMiterlimit="10" strokeWidth="2.52" stroke="url(#linear-gradient-6)"/>
        <g clip-path="url(#clip-path-3)">
          <g>
            <path d="M113.4,130.51h0a3.15,3.15,0,0,1,3.15,3.15v1.89a0,0,0,0,1,0,0h-6.31a0,0,0,0,1,0,0v-1.89a3.15,3.15,0,0,1,3.15-3.15Z" transform="translate(-15.34 14.78) rotate(-6.98)" fill="#fff"/>
            <path d="M121.54,129.51h0a3.15,3.15,0,0,1,3.15,3.15v1.89a0,0,0,0,1,0,0h-6.31a0,0,0,0,1,0,0v-1.89a3.15,3.15,0,0,1,3.15-3.15Z" transform="translate(-15.15 15.76) rotate(-6.98)" fill="#fff"/>
            <path d="M129.67,128.52h0a3.15,3.15,0,0,1,3.15,3.15v1.89a0,0,0,0,1,0,0h-6.31a0,0,0,0,1,0,0v-1.89a3.15,3.15,0,0,1,3.15-3.15Z" transform="translate(-14.97 16.74) rotate(-6.98)" fill="#fff"/>
            <path d="M137.81,127.52h0a3.15,3.15,0,0,1,3.15,3.15v1.89a0,0,0,0,1,0,0h-6.31a0,0,0,0,1,0,0v-1.89a3.15,3.15,0,0,1,3.15-3.15Z" transform="translate(-14.79 17.72) rotate(-6.98)" fill="#fff"/>
          </g>
          <path d="M108.21,110.77h6.31a0,0,0,0,1,0,0V119a3.15,3.15,0,0,1-3.15,3.15h0a3.15,3.15,0,0,1-3.15-3.15v-8.2A0,0,0,0,1,108.21,110.77Z" transform="translate(-13.33 14.41) rotate(-6.98)" fill="#fff"/>
          <path d="M116.74,112.9H123a0,0,0,0,1,0,0v8.2a3.15,3.15,0,0,1-3.15,3.15h0a3.15,3.15,0,0,1-3.15-3.15v-8.2A0,0,0,0,1,116.74,112.9Z" transform="translate(-13.53 15.46) rotate(-6.98)" fill="#fff"/>
          <path d="M124.87,111.91h6.31a0,0,0,0,1,0,0v8.2a3.15,3.15,0,0,1-3.15,3.15h0a3.15,3.15,0,0,1-3.15-3.15v-8.2a0,0,0,0,1,0,0Z" transform="translate(-13.35 16.44) rotate(-6.98)" fill="#fff"/>
          <path d="M132.63,107.78h6.31a0,0,0,0,1,0,0V116a3.15,3.15,0,0,1-3.15,3.15h0a3.15,3.15,0,0,1-3.15-3.15v-8.2a0,0,0,0,1,0,0Z" transform="translate(-12.79 17.35) rotate(-6.98)" fill="#fff"/>
        </g>
      </g>
      <path d="M172.27,97.55c-3.89-31.72-104-19.45-100.15,12.27l-2.94-24A48.36,48.36,0,0,1,111.29,32l4.16-.51a48.37,48.37,0,0,1,53.88,42.12Z" fill="#374151"/>
      <path d="M175.44,235.42C175,206,167,184,165.27,160.41c-1.29-17.4-6-25.36-19.65-24.12-6.1.56-10.61,3.72-11.61,9.07-.22,1.21-.72,4-1.34,7.22a4.74,4.74,0,0,1-8.85,1.31c-1.28-2.42-2.39-4.44-2.93-5.32-2.59-4.24-7-11.49-17.32-8.56-22,6.26-14.44,29.52-14.44,29.52C97,196,114,207,118.94,242.78c4.16,35,19.88,18.44,27.57,12.48,4.47-3.34,5.1,5.27,14.55,2.73h0C171.27,255.73,176,245,175.44,235.42Z" fill="#374151"/>
      <line x1="97.97" y1="169" x2="130.01" y2="262.09" fill="none" stroke="#7a5135" strokeLinecap="round" strokeMiterlimit="10" strokeWidth="8"/>
      <rect x="97.54" y="176.96" width="10.07" height="14.51" rx="5.04" transform="translate(-88.67 272.97) rotate(-85.79)" fill="#fff"/>
      <path d="M99.58,155.64c-27.16,12.52-72.49,20.81-2.1,27.87" fill="none" stroke="#374151" strokeLinecap="round" strokeLinejoin="round" strokeWidth="12"/>
      <g>
        <path d="M64.81,72.92,53.91,41.27c-30.37,9-53.53,25-70.36,47.09A4.49,4.49,0,0,0-10.73,95C13.78,81.62,38.76,72.47,64.81,72.92Z" fill="#d1d5db"/>
        <path d="M63.32,68.61l1.49,4.31c-26.05-.45-51,8.7-75.54,22.09a4.36,4.36,0,0,1-5.72-1.26C-16.74,93.36,25.42,67.6,63.32,68.61Z" fill="#9ca3af"/>
        <line x1="51.59" y1="34.23" x2="97.97" y2="169" fill="none" stroke="#7a5135" strokeLinecap="round" strokeMiterlimit="10" strokeWidth="8"/>
      </g>
    </g>
    <path id="reaper--hand4" d="M169.46,82.6h0a5.09,5.09,0,0,1,7.08,1.07l1.4,1.88,1.22,1.63a5,5,0,0,1-1,7h0a5,5,0,0,1-7-1l-2.65-3.55A5,5,0,0,1,169.46,82.6Z" fill="#fff" opacity="0"/>
    <path id="reaper--arm4" d="M156.41,147.46c65,12.54,41.24-28,20.88-54.41" fill="none" stroke="#374151" strokeLinecap="round" strokeLinejoin="round" strokeWidth="12" opacity="0"/>
    <path id="reaper--arm3" d="M156.41,147.46c33.57,16.74,59.3,36,21,50" fill="none" stroke="#374151" strokeLinecap="round" strokeLinejoin="round" strokeWidth="12" opacity="0"/>
    <path id="reaper--hand3" d="M166.76,202.43h0a5.17,5.17,0,0,1,2.72-6.7l2-.89,1.89-.83a5,5,0,0,1,6.64,2.57h0a5,5,0,0,1-2.58,6.64L173.4,205A5,5,0,0,1,166.76,202.43Z" fill="#fff" opacity="0"/>
    <path id="reaper--arm2" d="M156.41,147.46c65,12.54,48.59-34.35,28.23-60.79" fill="none" stroke="#374151" strokeLinecap="round" strokeLinejoin="round" strokeWidth="12" opacity="0"/>
    <path id="reaper--hand2" d="M176.55,75.17h0a5.07,5.07,0,0,1,7,1.4l1.3,2L186,80.21a5,5,0,0,1-1.36,7h0a5.05,5.05,0,0,1-7-1.37l-2.47-3.68A5,5,0,0,1,176.55,75.17Z" fill="#fff" opacity="0"/>
    <path id="reaper--arm" d="M156.41,147.46c41.35,5,57.64-35.38,56.39-69.12" fill="none" stroke="#374151" strokeLinecap="round" strokeLinejoin="round" strokeWidth="12"/>
    <path id="reaper--hand" d="M212.92,63.83h0a5.18,5.18,0,0,1,5.13,5.11l0,2.14,0,2.13a5,5,0,0,1-4.94,5.12h0a5,5,0,0,1-5.13-4.94L208,69A5,5,0,0,1,212.92,63.83Z" fill="#fff"/>
  </g>
  <g id="starburst" opacity="0.25">
    <line x1="218" y1="45" x2="218" y2="29" fill="none" stroke="#fcee21" strokeLinecap="round" strokeMiterlimit="10" strokeWidth="2"/>
    <line x1="218" y1="101" x2="218" y2="117" fill="none" stroke="#fcee21" strokeLinecap="round" strokeMiterlimit="10" strokeWidth="2"/>
    <line x1="190" y1="73" x2="174" y2="73" fill="none" stroke="#fcee21" strokeLinecap="round" strokeMiterlimit="10" strokeWidth="2"/>
    <line x1="246" y1="73" x2="262" y2="73" fill="none" stroke="#fcee21" strokeLinecap="round" strokeMiterlimit="10" strokeWidth="2"/>
    <line x1="198.2" y1="53.2" x2="186.89" y2="41.89" fill="none" stroke="#fcee21" strokeLinecap="round" strokeMiterlimit="10" strokeWidth="2"/>
    <line x1="237.8" y1="92.8" x2="249.11" y2="104.11" fill="none" stroke="#fcee21" strokeLinecap="round" strokeMiterlimit="10" strokeWidth="2"/>
    <line x1="198.2" y1="92.8" x2="186.89" y2="104.11" fill="none" stroke="#fcee21" strokeLinecap="round" strokeMiterlimit="10" strokeWidth="2"/>
    <line x1="237.8" y1="53.2" x2="249.11" y2="41.89" fill="none" stroke="#fcee21" strokeLinecap="round" strokeMiterlimit="10" strokeWidth="2"/>
  </g>
</svg>